<svg width="23" height="24" viewBox="0 0 23 24" fill="none" xmlns="http://www.w3.org/2000/svg">
<path d="M6.94993 24C6.39739 24 5.93171 23.8135 5.55287 23.4405C5.17404 23.0675 4.98506 22.6094 4.98593 22.0662C4.98681 21.523 5.17579 21.0645 5.55287 20.6906C5.93171 20.3184 6.39739 20.1324 6.94993 20.1324C7.50246 20.1324 7.96771 20.3184 8.34567 20.6906C8.72363 21.0627 8.91305 21.5213 8.91392 22.0662C8.91479 22.6111 8.72538 23.0692 8.34567 23.4405C7.96597 23.8118 7.50072 23.9983 6.94993 24ZM19.2367 24C18.685 24 18.2198 23.8135 17.8409 23.4405C17.4621 23.0675 17.2727 22.6094 17.2727 22.0662C17.2727 21.523 17.4621 21.0645 17.8409 20.6906C18.2198 20.3184 18.685 20.1324 19.2367 20.1324C19.7883 20.1324 20.254 20.3184 20.6337 20.6906C21.0117 21.0636 21.2007 21.5221 21.2007 22.0662C21.2007 22.6094 21.0117 23.0675 20.6337 23.4405C20.2549 23.8135 19.7892 24 19.2367 24ZM5.08152 3.86764L8.57611 11.1079H17.2635C17.4145 11.1079 17.5485 11.0705 17.6655 10.9957C17.7833 10.9209 17.8841 10.8178 17.9679 10.6863L21.3931 4.56253C21.4935 4.38032 21.5018 4.21917 21.418 4.07907C21.3333 3.93812 21.1906 3.86764 20.9899 3.86764H5.08152ZM4.44125 2.57843H21.4887C22.057 2.57843 22.4847 2.80705 22.7719 3.26429C23.0599 3.72067 23.0752 4.19123 22.8177 4.67598L19.0756 11.3902C18.8862 11.7039 18.6401 11.9502 18.3372 12.1289C18.0343 12.3077 17.7013 12.3971 17.3381 12.3971H7.98692L6.39608 15.272C6.26166 15.4706 6.25729 15.6854 6.38299 15.9166C6.50868 16.1478 6.69766 16.2639 6.94993 16.2647H20.546C20.7328 16.2647 20.8886 16.3262 21.0134 16.4491C21.1383 16.572 21.2007 16.7254 21.2007 16.9093C21.2007 17.0933 21.1383 17.2462 21.0134 17.3683C20.8886 17.4903 20.7328 17.5522 20.546 17.5539H6.94993C6.18615 17.5539 5.61616 17.2368 5.23994 16.6025C4.86373 15.9682 4.85456 15.3313 5.21245 14.6919L7.18168 11.2368L2.36728 1.28921H0.654674C0.468749 1.28921 0.312939 1.22776 0.187243 1.10486C0.0615474 0.981951 -0.000863856 0.828535 9.02988e-06 0.644607C0.000881916 0.460679 0.0632931 0.307262 0.187243 0.184357C0.311193 0.0614524 0.467003 0 0.654674 0H2.53094C2.73694 0 2.92418 0.0519984 3.09264 0.155995C3.26024 0.259991 3.3903 0.405243 3.48282 0.591749L4.44125 2.57843Z" fill="#404040"/>
</svg>
