<svg width="48" height="48" viewBox="0 0 48 48" fill="none" xmlns="http://www.w3.org/2000/svg">
<path d="M24 30.36L39.432 14.93C39.7253 14.6366 40.0773 14.4913 40.488 14.494C40.8987 14.4966 41.2513 14.646 41.546 14.942C41.8407 15.2366 41.988 15.5893 41.988 16C41.988 16.4106 41.8407 16.7633 41.546 17.058L26.272 32.34C25.9493 32.664 25.5893 32.9 25.192 33.048C24.7947 33.1973 24.3973 33.272 24 33.272C23.6027 33.272 23.2053 33.1973 22.808 33.048C22.4107 32.8986 22.0507 32.6626 21.728 32.34L6.43999 17.06C6.14532 16.7653 5.99999 16.4106 6.00399 15.996C6.00799 15.5826 6.15732 15.2286 6.45199 14.934C6.74665 14.6393 7.09932 14.4913 7.50999 14.49C7.92065 14.4886 8.27265 14.6366 8.56599 14.934L24 30.36Z" fill="#404040"/>
</svg>
