<svg width="48" height="48" viewBox="0 0 48 48" fill="none" xmlns="http://www.w3.org/2000/svg">
<path d="M17.64 24L33.07 39.432C33.3634 39.7253 33.5087 40.0773 33.506 40.488C33.5034 40.8987 33.354 41.2513 33.058 41.546C32.7634 41.8407 32.4107 41.988 32 41.988C31.5894 41.988 31.2367 41.8407 30.942 41.546L15.66 26.272C15.336 25.9493 15.1 25.5893 14.952 25.192C14.8027 24.7947 14.728 24.3973 14.728 24C14.728 23.6027 14.8027 23.2053 14.952 22.808C15.1014 22.4107 15.3374 22.0507 15.66 21.728L30.94 6.43999C31.2347 6.14532 31.5894 5.99999 32.004 6.00399C32.4174 6.00799 32.7714 6.15732 33.066 6.45199C33.3607 6.74665 33.5087 7.09932 33.51 7.50999C33.5114 7.92065 33.3634 8.27265 33.066 8.56599L17.64 24Z" fill="#404040"/>
</svg>
