<svg width="28" height="24" viewBox="0 0 28 24" fill="none" xmlns="http://www.w3.org/2000/svg">
<path d="M2.44584 24C1.74861 24 1.16692 23.765 0.700757 23.2951C0.234595 22.8252 0.00100901 22.2383 0 21.5344V5.10515C0 4.40229 0.233586 3.81589 0.700757 3.34596C1.16793 2.87603 1.74912 2.64056 2.44432 2.63954H16.5609C16.7768 2.63954 16.9619 2.71736 17.1163 2.87298C17.2707 3.02861 17.3378 3.21475 17.3176 3.43141C17.2984 3.62975 17.2167 3.80165 17.0724 3.94711C16.9281 4.09256 16.7576 4.16529 16.5609 4.16529H1.51351V21.5359C1.51351 21.8095 1.60079 22.0343 1.77535 22.2103C1.94991 22.3863 2.17341 22.4743 2.44584 22.4743H24.7989C25.0703 22.4743 25.2933 22.3863 25.4679 22.2103C25.6424 22.0343 25.7297 21.8095 25.7297 21.5359V11.794C25.7297 11.5774 25.8019 11.3958 25.9462 11.2493C26.0904 11.1029 26.2706 11.0301 26.4865 11.0312C26.7024 11.0322 26.8825 11.1049 27.0268 11.2493C27.1711 11.3938 27.2432 11.5753 27.2432 11.794V21.5359C27.2432 22.2378 27.0102 22.8237 26.544 23.2936C26.0778 23.7635 25.4961 23.999 24.7989 24H2.44584ZM13.6216 11.794L18.5905 8.53808C18.7882 8.40585 18.9719 8.36771 19.1414 8.42365C19.3119 8.47959 19.4466 8.58894 19.5455 8.75168C19.6444 8.91443 19.6832 9.08226 19.662 9.25518C19.6399 9.43013 19.5299 9.58271 19.3321 9.71291L14.2709 13.0589C14.057 13.1911 13.8406 13.2623 13.6216 13.2725C13.4027 13.2826 13.1862 13.2211 12.9723 13.0879L1.51351 5.83751V4.16529L13.6216 11.794ZM24.2162 7.62874C23.1689 7.62874 22.2759 7.25696 21.5373 6.51341C20.7987 5.76987 20.4304 4.86968 20.4324 3.81284C20.4344 2.75601 20.8027 1.85633 21.5373 1.1138C22.2718 0.371265 23.1648 0 24.2162 0C25.2676 0 26.1606 0.371265 26.8951 1.1138C27.6297 1.85633 27.998 2.75652 28 3.81437C28.002 4.87222 27.6337 5.7719 26.8951 6.51341C26.1565 7.25493 25.2636 7.62619 24.2162 7.62721" fill="#404040"/>
</svg>
