<svg width="25" height="24" viewBox="0 0 25 24" fill="none" xmlns="http://www.w3.org/2000/svg">
<path d="M12.5 10.8826C11.0274 10.8826 9.76607 10.3492 8.71607 9.28257C7.66607 8.21591 7.14167 6.93518 7.14286 5.4404C7.14405 3.94562 7.66845 2.66369 8.71607 1.59461C9.76369 0.525522 11.025 -0.00599584 12.5 5.1014e-05C13.975 0.00609786 15.2363 0.53822 16.2839 1.59642C17.3315 2.65462 17.856 3.93655 17.8571 5.44222C17.8583 6.94788 17.3339 8.2286 16.2839 9.28438C15.2339 10.3402 13.9726 10.8717 12.5 10.8826ZM0 22.117V21.0141C0 20.2655 0.214286 19.5652 0.642857 18.9134C1.07262 18.2603 1.65 17.7536 2.375 17.3932C4.06071 16.572 5.74762 15.9565 7.43571 15.5465C9.12262 15.1353 10.8107 14.9297 12.5 14.9297C14.1893 14.9297 15.878 15.1353 17.5661 15.5465C19.2542 15.9577 20.9399 16.5733 22.6232 17.3932C23.3494 17.7536 23.9268 18.2603 24.3554 18.9134C24.7851 19.5652 25 20.2655 25 21.0141V22.117C25 22.6491 24.822 23.0966 24.4661 23.4594C24.1101 23.8198 23.6696 24 23.1446 24H1.85714C1.33214 24 0.891667 23.8192 0.535715 23.4576C0.179762 23.096 0.00119048 22.6503 0 22.117ZM1.78571 22.1859H23.2143V21.0123C23.2143 20.6107 23.0863 20.2328 22.8304 19.8785C22.5756 19.5253 22.2226 19.2266 21.7714 18.9823C20.3024 18.2591 18.7869 17.7052 17.225 17.3207C15.6631 16.9361 14.0881 16.7438 12.5 16.7438C10.9119 16.7438 9.3369 16.9361 7.775 17.3207C6.2131 17.7052 4.69762 18.2591 3.22857 18.9823C2.77619 19.2266 2.42321 19.5253 2.16964 19.8785C1.91369 20.2328 1.78571 20.6113 1.78571 21.0141V22.1859ZM12.5 9.06851C13.4821 9.06851 14.3232 8.71296 15.0232 8.00185C15.7232 7.29074 16.0726 6.43632 16.0714 5.43859C16.0702 4.44086 15.7208 3.58704 15.0232 2.87714C14.3256 2.16724 13.4845 1.81169 12.5 1.81048C11.5155 1.80927 10.675 2.16482 9.97857 2.87714C9.28214 3.58946 8.93214 4.44328 8.92857 5.43859C8.925 6.4339 9.275 7.28832 9.97857 8.00185C10.6821 8.71538 11.5226 9.07033 12.5 9.0667" fill="#404040"/>
</svg>
