<svg width="104" height="104" viewBox="0 0 104 104" fill="none" xmlns="http://www.w3.org/2000/svg">
<path d="M61.4241 91.7631C64.4641 57.2373 44.3516 35.2458 33.9469 28.1887C29.8214 26.2344 26.7992 29.5458 25.8037 31.4458C25.2609 33.3458 23.3066 37.2544 19.8323 37.6887C16.358 38.123 14.7656 42.2125 14.4037 44.203C14.2229 45.1077 12.9926 48.003 9.51831 52.3458C6.04402 56.6887 8.07069 60.6696 9.51831 62.1173C15.7699 62.1931 9.25135 68.7996 9.5812 68.9631C9.91106 69.1266 64.6819 44.4242 61.4241 91.7631Z" fill="white"/>
<path d="M34.5563 27.2902C34.15 27.8892 33.7437 28.4882 33.3374 29.0872C36.0476 30.9375 38.5327 33.1334 40.8652 35.5099C55.2194 50.1313 62.3572 71.2696 60.3425 91.6678L62.5072 91.8376C63.046 83.4834 62.243 74.0719 55.7524 67.7117C42.2197 56.3425 22.5995 62.7664 10.0634 67.9903C10.3181 68.1044 10.5503 68.4042 10.6087 68.6326C10.6767 68.8607 10.6525 69.023 10.643 69.0933C10.6279 69.1879 10.6092 69.2393 10.5964 69.2751C10.5685 69.3467 10.5652 69.3452 10.5636 69.3498C10.5613 69.3534 10.5793 69.3233 10.5961 69.298C10.6382 69.234 10.6835 69.1697 10.7414 69.0886C10.8453 68.9438 10.9684 68.7768 11.0836 68.619C11.3203 68.295 11.5607 67.9598 11.7934 67.6127C12.2555 66.9164 12.7061 66.1887 13.0378 65.2964C13.1977 64.8463 13.3394 64.3475 13.3247 63.7321C13.3263 63.1299 13.018 62.3413 12.4856 61.9032C11.4018 61.0458 10.4168 61.0765 9.53147 61.0316L10.286 61.3495C8.15835 59.1664 8.21743 55.4711 10.3661 53.0241C12.3642 50.4191 14.3261 47.9977 15.4684 44.4158C15.4691 44.4121 15.4712 44.4009 15.4719 44.3972C15.9807 41.8261 17.6352 39.0051 19.9669 38.766C23.6618 38.2115 25.6703 35.0458 26.7205 32.1524C26.7659 32.017 26.8088 31.88 26.8477 31.7441L26.7654 31.9497C28.0913 29.4474 30.9883 27.8119 33.4821 29.1699C33.7919 28.5158 34.1018 27.8616 34.4117 27.2075C30.8444 25.236 26.396 27.7396 24.842 30.942C24.821 30.982 24.7722 31.1041 24.7598 31.1476C24.731 31.2482 24.6979 31.3543 24.662 31.4612C23.8178 33.8997 21.9886 36.3532 19.6976 36.6114C15.7471 37.2268 14.0091 40.8984 13.3355 44.0088L13.3391 43.9902C12.5459 46.4923 10.5628 49.2749 8.67051 51.6676C6.02566 54.5918 5.69804 59.8602 8.75059 62.885C8.89932 63.0337 9.29483 63.2003 9.50514 63.2029C10.1872 63.198 10.8914 63.3607 11.0523 63.5343C11.1247 63.6091 11.1398 63.6168 11.1544 63.8018C11.1622 63.9784 11.1051 64.2617 10.997 64.5546C10.7796 65.1485 10.4032 65.7862 9.98998 66.4032C9.78142 66.7143 9.56013 67.0234 9.32987 67.3385C9.21732 67.4928 9.09466 67.659 8.97641 67.8238C8.90894 67.9183 8.85592 67.9924 8.77932 68.1087C8.74682 68.1587 8.70553 68.2222 8.6575 68.3097C8.63562 68.3517 8.6077 68.397 8.56061 68.5197C8.53907 68.579 8.51464 68.651 8.49679 68.7633C8.48494 68.8476 8.46043 69.0281 8.53222 69.2676C8.59434 69.508 8.83363 69.8164 9.09902 69.9358C25.0642 64.8198 41.9388 59.0721 54.2443 69.274C59.9645 74.8192 60.8868 83.5786 60.3409 91.6885C60.2515 92.9882 62.3913 93.156 62.5056 91.8583C64.5787 70.8997 57.2334 49.0735 42.4172 33.9912C40.0009 31.531 37.436 29.2575 34.5563 27.2902ZM33.3374 29.0872L34.5563 27.2902C34.5284 27.2712 34.4421 27.2219 34.4117 27.2075L33.4821 29.1699L33.3374 29.0872Z" fill="white"/>
<path d="M55.6763 44.9355C50.1747 35.4231 45.5281 30.4821 41.8003 27.4368C44.5146 6.53681 70.1193 14.8973 76.5431 16.9783C80.4994 20.9346 85.1324 28.7192 89.2949 36.7926M55.6763 44.9355C59.6551 51.8148 63.2294 60.1578 65.1431 69.6355C71.1146 52.9511 87.9974 57.5298 99.0717 57.964C96.9715 52.8251 93.3572 44.6714 89.2949 36.7926M55.6763 44.9355C61.6146 31.5082 74.0907 34.8383 89.2949 36.7926" stroke="white" stroke-width="2.17143" stroke-linejoin="round"/>
<path d="M57.0219 31.9376C59.1933 27.3233 69.5076 25.6947 75.2076 28.1376" stroke="white" stroke-width="0.814286" stroke-linecap="round"/>
<path d="M52.679 25.9662C54.8504 21.3519 65.1647 19.7233 70.8647 22.1662" stroke="white" stroke-width="0.814286" stroke-linecap="round"/>
<path d="M65.1647 46.5948C67.3361 41.9805 77.6504 40.352 83.3504 42.7948" stroke="white" stroke-width="0.814286" stroke-linecap="round"/>
<path d="M68.9647 53.109C71.1362 48.4947 81.4505 46.8661 87.1505 49.309" stroke="white" stroke-width="0.814286" stroke-linecap="round"/>
</svg>
