<svg width="46" height="40" viewBox="0 0 46 40" fill="none" xmlns="http://www.w3.org/2000/svg">
<path d="M25.1365 0.0093322C28.7109 -0.114928 32.4665 1.03292 34.2142 1.59549L34.5365 1.69966L34.5662 1.71025C34.6347 1.73702 34.697 1.77771 34.7492 1.82987C36.7588 3.83952 39.0678 7.73469 41.1103 11.6961C43.1141 15.5827 44.8962 19.6027 45.9328 22.1392C46.0014 22.307 45.9799 22.4983 45.8759 22.6468C45.7718 22.7954 45.5994 22.881 45.4182 22.8739C44.0529 22.8204 42.4623 22.6361 40.9144 22.5261C39.3374 22.4141 37.7432 22.3724 36.2391 22.5824C34.7384 22.7919 33.3484 23.2493 32.1647 24.1205C30.9856 24.9883 29.9762 26.2922 29.274 28.2541C29.1933 28.4796 28.9722 28.6236 28.7333 28.6064C28.4945 28.5891 28.2965 28.4147 28.2491 28.18C27.3224 23.5905 25.5906 19.5462 23.6598 16.2077C20.9837 11.5809 18.7408 9.20626 16.9676 7.75765C16.8247 7.64098 16.7523 7.45875 16.7761 7.27587C17.1251 4.58849 18.2232 2.77945 19.7741 1.63733C21.3086 0.507296 23.2243 0.0758155 25.1365 0.0093322ZM40.2894 12.4328C36.6134 11.951 33.4087 11.3577 30.7273 11.6376C29.3742 11.7789 28.1936 12.1419 27.1849 12.8371C26.2311 13.4945 25.3979 14.4719 24.7202 15.9133C26.4171 18.8906 27.9555 22.4091 28.9339 26.3646C29.6339 25.021 30.5162 24.0092 31.5326 23.2612C32.8989 22.2557 34.4724 21.752 36.0917 21.5259C37.7077 21.3004 39.3903 21.3486 40.99 21.4622C42.2894 21.5545 43.4981 21.6856 44.6217 21.7619C43.5938 19.308 42.0306 15.8308 40.2894 12.4328ZM34.084 2.67434C32.4274 2.13833 28.6821 0.95338 25.1737 1.07534C23.3803 1.13768 21.7042 1.54071 20.4067 2.49621C19.1767 3.40204 18.2299 4.84647 17.8752 7.12517C19.6018 8.58021 21.6762 10.8317 24.0794 14.8204C24.7679 13.5652 25.6042 12.631 26.5795 11.9588C27.7738 11.1356 29.1393 10.7309 30.6166 10.5767C33.2587 10.3008 36.3849 10.8236 39.6875 11.2758C37.8054 7.71172 35.798 4.43132 34.084 2.67434Z" fill="#5A6E42"/>
<path d="M28.5494 7.0603C30.335 6.7202 32.3588 6.8171 33.8211 7.44382C33.9565 7.50184 34.0193 7.65863 33.9612 7.79401C33.9032 7.92936 33.7464 7.99211 33.6111 7.93411C32.2734 7.36081 30.3636 7.25771 28.6491 7.58428C27.7951 7.74696 27.0029 8.01392 26.365 8.37163C25.7251 8.73049 25.2588 9.16997 25.0238 9.66923C24.9611 9.80248 24.8022 9.8597 24.6689 9.79702C24.5357 9.73431 24.4785 9.5754 24.5412 9.44214C24.8396 8.80806 25.4067 8.29749 26.1042 7.90634C26.8038 7.51404 27.6535 7.23096 28.5494 7.0603Z" fill="#5A6E42"/>
<path d="M26.416 4.12695C28.2016 3.78685 30.2253 3.88375 31.6877 4.51047C31.8231 4.56849 31.8858 4.72528 31.8278 4.86066C31.7698 4.99601 31.613 5.05876 31.4776 5.00076C30.1399 4.42746 28.2302 4.32436 26.5157 4.65093C25.6616 4.81361 24.8695 5.08057 24.2316 5.43828C23.5916 5.79714 23.1253 6.23662 22.8904 6.73589C22.8277 6.86913 22.6688 6.92635 22.5355 6.86367C22.4023 6.80096 22.3451 6.64205 22.4077 6.5088C22.7061 5.87471 23.2732 5.36414 23.9708 4.97299C24.6704 4.58069 25.5201 4.29761 26.416 4.12695Z" fill="#5A6E42"/>
<path d="M32.5496 14.2605C34.3352 13.9204 36.3589 14.0173 37.8212 14.644C37.9566 14.702 38.0194 14.8588 37.9614 14.9942C37.9033 15.1296 37.7465 15.1923 37.6112 15.1343C36.2735 14.561 34.3637 14.4579 32.6492 14.7845C31.7952 14.9472 31.003 15.2141 30.3651 15.5718C29.7252 15.9307 29.2589 16.3702 29.0239 16.8694C28.9612 17.0027 28.8023 17.0599 28.6691 16.9972C28.5358 16.9345 28.4786 16.7756 28.5413 16.6423C28.8397 16.0083 29.4068 15.4977 30.1044 15.1065C30.804 14.7142 31.6536 14.4312 32.5496 14.2605Z" fill="#5A6E42"/>
<path d="M34.4163 17.4605C36.2019 17.1203 38.2256 17.2172 39.6879 17.844C39.8233 17.902 39.8861 18.0588 39.8281 18.1942C39.77 18.3295 39.6132 18.3923 39.4779 18.3343C38.1402 17.761 36.2304 17.6579 34.5159 17.9844C33.6619 18.1471 32.8697 18.4141 32.2318 18.7718C31.5919 19.1306 31.1256 19.5701 30.8906 20.0694C30.8279 20.2026 30.669 20.2598 30.5358 20.1972C30.4025 20.1345 30.3453 19.9755 30.408 19.8423C30.7064 19.2082 31.2735 18.6976 31.9711 18.3065C32.6707 17.9142 33.5203 17.6311 34.4163 17.4605Z" fill="#5A6E42"/>
<path d="M8.97449 9.63659C9.73789 8.06347 11.9231 6.83348 13.6755 7.80199C13.6905 7.80907 13.7328 7.83331 13.7465 7.84261C15.1611 8.80906 16.4211 9.92586 17.6081 11.1344C24.8864 18.5435 28.4948 29.2655 27.4764 39.5613C27.4202 40.1987 26.3691 40.1162 26.413 39.4777C26.6812 35.4938 26.2281 31.1909 23.4181 28.4668C17.3732 23.4552 9.0837 26.2788 1.24093 28.792C1.11057 28.7334 0.992981 28.5818 0.962452 28.4637C0.927188 28.3461 0.939271 28.2574 0.945091 28.216C0.953854 28.1608 0.965764 28.1255 0.976341 28.0963C0.986918 28.0678 0.997923 28.0442 1.00638 28.0271C1.01239 28.0149 1.01818 28.0037 1.02391 27.9932C1.03542 27.9721 1.04665 27.9533 1.05794 27.935C1.06741 27.9198 1.07505 27.9078 1.08381 27.8944C1.12144 27.8373 1.14755 27.8009 1.18069 27.7545C1.23877 27.6735 1.29901 27.5919 1.3543 27.5161C1.46741 27.3613 1.57599 27.2094 1.67845 27.0565C1.88145 26.7534 2.06645 26.4401 2.17325 26.1484C2.22632 26.0045 2.25435 25.8653 2.25051 25.7786C2.24334 25.6878 2.23589 25.684 2.20034 25.6473C2.12129 25.562 1.77545 25.482 1.44042 25.4844C1.3371 25.4832 1.14281 25.4013 1.06975 25.3282C-0.429788 23.8423 -0.268924 21.2543 1.03034 19.8178C1.95992 18.6424 2.93418 17.2755 3.32381 16.0463L3.32207 16.0555C3.65295 14.5276 4.50667 12.7239 6.44734 12.4216C7.57278 12.2947 8.47144 11.0895 8.88612 9.89163C8.90376 9.8391 8.91992 9.78689 8.93404 9.73746C8.94015 9.71609 8.96418 9.6563 8.97449 9.63659ZM13.167 8.73882C11.9673 8.12853 10.5927 8.90231 9.94136 10.0916C9.92731 10.1382 9.91277 10.1849 9.89726 10.2311C9.38136 11.6524 8.39471 13.2075 6.57963 13.4799C5.43419 13.5974 4.62133 14.9833 4.37141 16.2463C4.37107 16.2482 4.37004 16.2535 4.36967 16.2554C3.80855 18.0149 2.84487 19.2045 1.86335 20.4841C0.85391 21.6338 0.783253 23.3442 1.6932 24.4294C2.06417 24.4491 2.46808 24.5007 2.90452 24.8459C3.16603 25.0611 3.31744 25.4485 3.31669 25.7444C3.32387 26.0466 3.25428 26.2917 3.17571 26.5128C3.04726 26.8584 2.88217 27.1536 2.70695 27.4307C8.87134 24.9643 17.8583 22.4059 24.159 27.6993C24.9819 28.5056 25.6182 29.4122 26.1056 30.3836C24.9608 23.4645 21.7666 16.8929 16.8457 11.8804C15.7055 10.7187 14.4908 9.64499 13.167 8.73882Z" fill="#87B546"/>
<path d="M26.9451 39.5145C28.4385 22.554 18.5584 11.7508 13.4471 8.28407C11.4205 7.32404 9.93585 8.95075 9.44684 9.88411C9.18017 10.8175 8.22014 12.7375 6.51342 12.9509C4.80671 13.1642 4.02446 15.1732 3.84668 16.151C3.75784 16.5954 3.15348 18.0177 1.44676 20.1511C-0.259956 22.2845 0.735629 24.2401 1.44676 24.9512C4.51781 24.9885 1.31562 28.2339 1.47766 28.3142C1.6397 28.3945 28.5454 16.2596 26.9451 39.5145Z" fill="#87B546"/>
</svg>
