<svg width="24" height="24" viewBox="0 0 24 24" fill="none" xmlns="http://www.w3.org/2000/svg">
<path d="M22.1053 24C22.6078 24 23.0897 23.8004 23.445 23.445C23.8004 23.0897 24 22.6078 24 22.1053V17.6842C24 17.1817 23.8004 16.6998 23.445 16.3444C23.0897 15.9891 22.6078 15.7895 22.1053 15.7895C20.6274 15.7895 19.1747 15.5621 17.7853 15.0947C17.4531 14.9899 17.0985 14.978 16.76 15.0604C16.4215 15.1428 16.1121 15.3163 15.8653 15.5621L14.0463 17.3811C10.9039 15.6662 8.32116 13.0835 6.60632 9.94105L8.41263 8.13474C8.93053 7.6421 9.12 6.90947 8.89263 6.2021C8.43789 4.82526 8.21053 3.37263 8.21053 1.89474C8.21053 1.39222 8.0109 0.910288 7.65557 0.554956C7.30024 0.199624 6.8183 0 6.31579 0H1.89474C1.39222 0 0.910288 0.199624 0.554956 0.554956C0.199624 0.910288 0 1.39222 0 1.89474C0 14.0842 9.91579 24 22.1053 24ZM1.89474 1.26316H6.31579C6.48329 1.26316 6.64394 1.3297 6.76238 1.44814C6.88083 1.56659 6.94737 1.72723 6.94737 1.89474C6.94737 3.51158 7.2 5.09053 7.69263 6.59368C7.75579 6.77053 7.74316 7.02316 7.54105 7.22526L5.05263 9.70105C7.13684 13.7811 10.1937 16.8379 14.2863 18.9474L16.7495 16.4589C16.9263 16.2821 17.1663 16.2316 17.3937 16.2947C18.9095 16.8 20.4884 17.0526 22.1053 17.0526C22.2728 17.0526 22.4334 17.1192 22.5519 17.2376C22.6703 17.3561 22.7368 17.5167 22.7368 17.6842V22.1053C22.7368 22.2728 22.6703 22.4334 22.5519 22.5519C22.4334 22.6703 22.2728 22.7368 22.1053 22.7368C10.6105 22.7368 1.26316 13.3895 1.26316 1.89474C1.26316 1.72723 1.3297 1.56659 1.44814 1.44814C1.56659 1.3297 1.72723 1.26316 1.89474 1.26316Z" fill="#404040"/>
</svg>
