<svg width="48" height="48" viewBox="0 0 48 48" fill="none" xmlns="http://www.w3.org/2000/svg">
<path d="M30.36 24L14.93 8.56802C14.6366 8.27468 14.4913 7.92268 14.494 7.51202C14.4966 7.10135 14.646 6.74868 14.942 6.45401C15.2366 6.15935 15.5893 6.01202 16 6.01202C16.4106 6.01202 16.7633 6.15935 17.058 6.45401L32.34 21.728C32.664 22.0507 32.9 22.4107 33.048 22.808C33.1973 23.2053 33.272 23.6027 33.272 24C33.272 24.3973 33.1973 24.7947 33.048 25.192C32.8986 25.5893 32.6626 25.9493 32.34 26.272L17.06 41.56C16.7653 41.8547 16.4106 42 15.996 41.996C15.5826 41.992 15.2286 41.8427 14.934 41.548C14.6393 41.2533 14.4913 40.9007 14.49 40.49C14.4886 40.0793 14.6366 39.7273 14.934 39.434L30.36 24Z" fill="#404040"/>
</svg>
