<svg width="24" height="24" viewBox="0 0 24 24" fill="none" xmlns="http://www.w3.org/2000/svg">
<path d="M8.50009 16.9883C6.12898 16.9883 4.11928 16.165 2.47097 14.5186C0.823657 12.8731 0 10.865 0 8.49413C0 6.12329 0.823657 4.11464 2.47097 2.46819C4.11829 0.821743 6.12799 -0.000987375 8.50009 8.8926e-07C10.8722 0.000989154 12.8814 0.824213 14.5277 2.46967C16.174 4.11513 16.9977 6.12329 16.9987 8.49413C16.9987 9.5239 16.8163 10.5206 16.4514 11.4841C16.0865 12.4477 15.607 13.2719 15.0127 13.9568L23.7768 22.7133C23.9152 22.8516 23.9894 23.0221 23.9993 23.2247C24.0082 23.4253 23.934 23.6047 23.7768 23.7628C23.6186 23.9209 23.4436 24 23.2518 24C23.0599 24 22.8849 23.9209 22.7267 23.7628L13.9641 15.0048C13.2225 15.6363 12.3697 16.125 11.4056 16.4709C10.4416 16.8168 9.47256 16.9897 8.4986 16.9897M8.4986 15.5074C10.4663 15.5074 12.1279 14.8304 13.4836 13.4765C14.8382 12.1225 15.5155 10.4618 15.5155 8.49413C15.5155 6.5265 14.8387 4.86621 13.485 3.51328C12.1314 2.16035 10.4702 1.48339 8.50157 1.4824C6.5329 1.4824 4.87125 2.15936 3.51661 3.51328C2.16198 4.8672 1.48417 6.52749 1.48318 8.49413C1.48219 10.4608 2.15951 12.1211 3.51513 13.475C4.87075 14.8289 6.53191 15.5059 8.4986 15.5059" fill="#404040"/>
</svg>
