<svg width="48" height="48" viewBox="0 0 48 48" fill="none" xmlns="http://www.w3.org/2000/svg">
<path d="M24 17.64L39.432 33.07C39.7253 33.3634 40.0773 33.5087 40.488 33.506C40.8987 33.5034 41.2513 33.354 41.546 33.058C41.8407 32.7634 41.988 32.4107 41.988 32C41.988 31.5894 41.8407 31.2367 41.546 30.942L26.272 15.66C25.9493 15.336 25.5893 15.1 25.192 14.952C24.7947 14.8027 24.3973 14.728 24 14.728C23.6027 14.728 23.2053 14.8027 22.808 14.952C22.4107 15.1014 22.0507 15.3374 21.728 15.66L6.43999 30.94C6.14532 31.2347 5.99999 31.5894 6.00399 32.004C6.00799 32.4174 6.15732 32.7714 6.45199 33.066C6.74665 33.3607 7.09932 33.5087 7.50999 33.51C7.92065 33.5114 8.27265 33.3634 8.56599 33.066L24 17.64Z" fill="#404040"/>
</svg>
